<svg xmlns="http://www.w3.org/2000/svg" viewBox="0 0 32 32">
  <defs>
    <linearGradient id="neuralGradient" x1="0%" y1="0%" x2="100%" y2="100%">
      <stop offset="0%" style="stop-color:#00f5ff;stop-opacity:1" />
      <stop offset="50%" style="stop-color:#0066ff;stop-opacity:1" />
      <stop offset="100%" style="stop-color:#3300ff;stop-opacity:1" />
    </linearGradient>
    <linearGradient id="lightningGradient" x1="0%" y1="0%" x2="100%" y2="100%">
      <stop offset="0%" style="stop-color:#ffff00;stop-opacity:1" />
      <stop offset="50%" style="stop-color:#ff6600;stop-opacity:1" />
      <stop offset="100%" style="stop-color:#ff0066;stop-opacity:1" />
    </linearGradient>
    <filter id="glow">
      <feGaussianBlur stdDeviation="1" result="coloredBlur"/>
      <feMerge> 
        <feMergeNode in="coloredBlur"/>
        <feMergeNode in="SourceGraphic"/>
      </feMerge>
    </filter>
  </defs>
  
  <!-- Background circle -->
  <circle cx="16" cy="16" r="15" fill="#0a0a0a" stroke="url(#neuralGradient)" stroke-width="1"/>
  
  <!-- Neural network nodes -->
  <circle cx="8" cy="10" r="1.5" fill="url(#neuralGradient)" filter="url(#glow)"/>
  <circle cx="24" cy="12" r="1.5" fill="url(#neuralGradient)" filter="url(#glow)"/>
  <circle cx="6" cy="22" r="1.5" fill="url(#neuralGradient)" filter="url(#glow)"/>
  <circle cx="26" cy="24" r="1.5" fill="url(#neuralGradient)" filter="url(#glow)"/>
  <circle cx="16" cy="8" r="1.5" fill="url(#neuralGradient)" filter="url(#glow)"/>
  
  <!-- Neural network connections -->
  <path d="M8,10 L16,8 L24,12" stroke="url(#neuralGradient)" stroke-width="0.5" fill="none" opacity="0.6"/>
  <path d="M6,22 L16,8 L26,24" stroke="url(#neuralGradient)" stroke-width="0.5" fill="none" opacity="0.6"/>
  <path d="M8,10 L6,22" stroke="url(#neuralGradient)" stroke-width="0.5" fill="none" opacity="0.4"/>
  <path d="M24,12 L26,24" stroke="url(#neuralGradient)" stroke-width="0.5" fill="none" opacity="0.4"/>
  
  <!-- Central lightning bolt -->
  <path d="M16,14 L18,12 L15,12 L17,8 L14,8 L12,14 L15,14 L13,18 L16,18 Z" 
        fill="url(#lightningGradient)" 
        filter="url(#glow)" 
        stroke="#ffffff" 
        stroke-width="0.3"/>
  
  <!-- Tech elements - corner circuits -->
  <path d="M2,2 L4,2 L4,4" stroke="url(#neuralGradient)" stroke-width="0.8" fill="none" opacity="0.7"/>
  <path d="M30,2 L28,2 L28,4" stroke="url(#neuralGradient)" stroke-width="0.8" fill="none" opacity="0.7"/>
  <path d="M2,30 L4,30 L4,28" stroke="url(#neuralGradient)" stroke-width="0.8" fill="none" opacity="0.7"/>
  <path d="M30,30 L28,30 L28,28" stroke="url(#neuralGradient)" stroke-width="0.8" fill="none" opacity="0.7"/>
  
  <!-- Small tech dots -->
  <circle cx="3" cy="3" r="0.5" fill="#00f5ff" opacity="0.8"/>
  <circle cx="29" cy="3" r="0.5" fill="#00f5ff" opacity="0.8"/>
  <circle cx="3" cy="29" r="0.5" fill="#00f5ff" opacity="0.8"/>
  <circle cx="29" cy="29" r="0.5" fill="#00f5ff" opacity="0.8"/>
</svg>